<?xml version="1.0" encoding="UTF-8"?> <!-- Generator: Adobe Illustrator 24.3.0, SVG Export Plug-In . SVG Version: 6.00 Build 0) --> <svg xmlns="http://www.w3.org/2000/svg" xmlns:xlink="http://www.w3.org/1999/xlink" version="1.1" id="Layer_1" x="0px" y="0px" viewBox="0 0 512 104" style="enable-background:new 0 0 512 104;" xml:space="preserve"> <style type="text/css"> .st0{fill:#23315B;} .st1{fill:url(#SVGID_1_);} .st2{fill:url(#SVGID_2_);} .st3{fill:url(#SVGID_3_);} .st4{fill:url(#SVGID_4_);} .st5{fill:url(#SVGID_5_);} .st6{fill:url(#SVGID_6_);} .st7{fill:url(#SVGID_7_);} .st8{fill:url(#SVGID_8_);} .st9{fill:#FFFFFF;} </style> <g> <path class="st0" d="M119.9,64.8c-0.2,0-0.5-0.1-0.7-0.4s-0.3-0.5-0.3-0.7c0.1-1,0.2-1.5,0.2-1.5c0-1.2-0.4-1.8-1.3-1.8 c-1.6,0-4,1.4-7.3,4.1c-3.3,2.8-5,4.9-5,6.4c0,0.6,0.6,1.2,1.9,1.6c0.6,0.2,2.3,0.5,5,1c2.4,0.4,4.1,0.9,5.2,1.4 c1.7,0.8,2.5,2,2.5,3.4c0,1.8-1,3.4-3,4.9c-1.9,1.4-3.7,2.2-5.4,2.2h-0.9c-1.1,0-2.2-0.3-3.2-1c-1.2-0.8-1.7-1.8-1.7-2.9 c0-0.3,0.1-0.7,0.3-1.2c0.2-0.6,0.5-0.9,0.7-0.9c0.5,0,0.7,0.2,0.7,0.7c0,0.2,0,0.4-0.1,0.7c-0.1,0.3-0.1,0.5-0.1,0.5 c0,0.7,0.4,1.3,1.1,1.7c0.6,0.4,1.4,0.6,2.2,0.6c1.8,0,3.5-0.5,5.1-1.6c1.8-1.2,2.6-2.5,2.6-4.1c0-0.8-0.7-1.5-2.1-2 c-0.7-0.2-2.3-0.6-4.8-1c-1.2-0.2-2.9-0.5-5.1-1.1c-1.8-0.6-2.6-1.4-2.6-2.5c0-2.7,1.8-5.5,5.5-8.5c3.5-2.7,6.4-4.1,9-4.1 c2.1,0,3.1,1.3,3.1,3.8c0,0.4-0.1,0.9-0.4,1.4C120.6,64.5,120.3,64.8,119.9,64.8z"></path> <path class="st0" d="M126.3,76.5c-0.2,0.2-0.5,0.9-0.8,1.9c-0.3,1.1-0.4,2-0.4,2.8c0,1,0.7,1.6,2,1.6c1.3,0,2.9-0.8,4.6-2.3 c1.7-1.5,2.9-3,3.6-4.6h0.6c0.3,0.2,0.3,0.5,0.3,0.7c-0.8,2.2-2.1,4.1-3.9,5.5c-1.7,1.4-3.4,2.1-5.2,2.1c-1.3,0-2.2-0.4-2.9-1.3 c-0.6-0.8-0.9-2-0.8-3.4c0.1-2,1.2-4.5,3.2-7.4c2.2-3.2,4.1-4.7,5.9-4.7c0.6,0,1.1,0.3,1.4,0.8c0.2,0.4,0.4,0.8,0.4,1.3 c0,1.3-0.5,2.8-1.7,4.5c-1.3,2-2.8,3-4.5,3C127.4,77.1,126.8,76.9,126.3,76.5L126.3,76.5z M132.4,68.9c-0.5,0.1-1,0.4-1.4,0.9 c-2.8,3.2-4.1,5.1-4.1,5.6c0,0.1,0.3,0.2,0.9,0.3c1,0.1,2.2-0.7,3.4-2.2c1.2-1.5,1.8-2.8,1.8-4C133,68.9,132.8,68.8,132.4,68.9z"></path> <path class="st0" d="M142.4,77.6l0.3-0.6c2.8-4.8,4.9-7.2,6.1-7.2c1.1,0,1.9,0.8,2.2,2.5c0.1,1.3,0.2,2.5,0.4,3.8 c0.2,2.1,0.3,3.2,0.4,3.5c0.3,1.9,0.7,2.8,1.3,2.8c0.3,0,0.6-0.2,1-0.7l0.7,0.2c0,0.5-0.2,0.9-0.7,1.3c-0.4,0.3-0.7,0.4-1,0.4 c-1.9,0-3.1-2.2-3.5-6.5c-0.1-1-0.2-2.4-0.4-4.2c-0.1-1.1-0.3-1.6-0.6-1.6c-0.4,0-1.6,1.4-3.3,4.2c-1.8,2.8-3,5.4-3.7,7.7 c-0.2,0.6-0.5,1-1,1c-0.6,0-0.9-0.3-0.8-0.9c0-0.2,0.4-3,1.3-8.4c0-0.7,0.1-1.6,0.2-2.8c0.1-1.1,0.5-1.6,1.2-1.6 c0.4,0,0.7,0.1,0.8,0.4c0.1,0.3,0.2,0.6,0.2,0.9L142.4,77.6z"></path> <path class="st0" d="M171,76.1l-0.7,0.9c-4.2,5.4-7.3,8.1-9.3,8.1h-0.4c-1.3,0-2-0.7-2-2c0-1.1,0.6-2.8,1.8-5.1 c1.2-2.5,2.7-4.6,4.3-6.3c1.9-2,3.6-3,5.2-3c0.6,0,1.2,0.2,1.9,0.7c0.3-1.5,0.7-3.6,1.2-6.3c0.5-2.7,1-4,1.7-4 c0.2,0,0.5,0.1,0.7,0.3c0.2,0.2,0.4,0.5,0.4,0.7c0,0.1-0.2,0.6-0.5,1.8c-1.7,5.8-2.5,11.3-2.5,16.6c0,3,0.5,4.6,1.4,4.6 c0.1,0,0.2-0.1,0.3-0.2c0.1-0.1,0.4-0.2,0.9-0.4c0.2,0.2,0.3,0.5,0.3,0.7c0,0.3-0.2,0.6-0.6,0.8c-0.4,0.2-0.7,0.3-1,0.3 c-1.9,0-2.9-2.2-2.9-6.6C171,77.2,171,76.7,171,76.1z M170.1,70c-1.5-0.3-3.6,1.5-6.3,5.3c-2.5,3.6-3.8,6.2-3.8,7.7 c0,0.4,0.1,0.6,0.4,0.6c1.2,0,3.1-1.4,5.9-4.2c2.5-2.5,4-4.3,4.4-5.4c0.3-0.6,0.4-1.4,0.4-2.2c0-0.4-0.1-0.8-0.3-1.2 C170.6,70.3,170.3,70.1,170.1,70z"></path> <path class="st0" d="M193.3,95.1c-1.9,0-3.6-0.8-5.2-2.4c-1.3-1.4-2-2.7-2-3.8c0-0.6,0.2-0.8,0.7-0.8c0.3,0,0.4,0.2,0.6,0.6 c0.1,0.3,0.2,0.6,0.2,0.9c0.4,1.1,1,2,1.9,2.7c0.9,0.8,1.9,1.2,3,1.3c2.8,0.2,5.1-1.3,6.7-4.7c1.3-2.7,2-5.7,2-9 c0-2.3-0.3-5.1-1-8.4c-1.1,2.9-2.1,5.1-2.8,6.5c-1.5,2.9-3,4.5-4.4,5c-0.3,0.1-0.5,0.1-0.7,0.1c-1.3,0-1.9-1-1.9-2.9 c0-1.8,0.5-4.3,1.4-7.6c1-3.4,1.9-5.2,2.6-5.3c0.3,0,0.5,0.1,0.8,0.3c0.3,0.2,0.4,0.4,0.4,0.6c0,0.1,0,0.1,0,0.2 c-0.8,1.2-1.5,2.7-2.2,4.6c-0.9,2.6-1.4,4.9-1.4,7c0,1.1,0.2,1.7,0.5,1.7c0.4,0,1.1-0.7,2-2.1c0.5-0.7,0.9-1.4,1.4-2.3 c1.9-3,3-5.4,3.3-7.3c0.1-0.7,0.1-1.3,0.1-1.8c-0.1-0.9,0.2-1.4,1-1.4c0.7,0,1.1,0.7,1.3,2l0,0.3c0.3,3,0.7,4.8,1.1,5.5 c0.2,0.4,0.3,2.2,0.3,5.5c0,3-0.7,6-2,9C199.1,93,196.5,95.1,193.3,95.1z"></path> <path class="st0" d="M211.1,84.3c-1.2,0.1-2.1-0.3-2.8-1.2c-0.6-0.8-1-1.8-1-3c0-2,0.5-4.3,1.5-6.6c1-2.4,1.9-3.6,2.7-3.6 c0.8,0,1.2,0.3,1.2,1c0,0.2-0.2,0.6-0.7,1.2c-2.1,2.8-3.1,5.3-3.1,7.7c0,2.1,0.5,3.1,1.6,3.1c1.6,0,3.1-1.4,4.6-4.3 c1.3-2.5,2-4.4,2-5.9c0-2.2-0.5-3.2-1.6-3.2c-0.8,0-1.7,0.4-2.6,1.3l-0.3-0.2c-0.2-0.1-0.3-0.3-0.3-0.5c0-0.5,0.5-0.9,1.4-1.4 c0.8-0.4,1.4-0.6,1.8-0.6c2.1,0,3.3,1.7,3.3,5c0,1.6-0.7,3.7-2.1,6.3C215,82.5,213.1,84.1,211.1,84.3z"></path> <path class="st0" d="M231.4,75.5c-1.4,3-2.3,4.8-2.8,5.4c-1.4,2.2-2.9,3.3-4.5,3.3c-1.2,0-1.9-1.2-1.9-3.7c0-0.7,0.4-2.6,1.1-5.8 c0.9-3.6,1.6-5.4,2.2-5.4c0.3,0,0.6,0.1,0.8,0.3c0.3,0.2,0.4,0.4,0.4,0.6c0,0.1-0.1,0.3-0.1,0.5l-0.4,0.9c-1.7,4.5-2.5,7.7-2.5,9.5 c0,1.1,0.2,1.7,0.6,1.7c0.5,0,1.2-0.6,2.2-1.8c1.1-1.3,2.2-3,3.2-5.1c1.2-2.3,1.8-4.1,1.8-5.3c0-0.4,0.1-0.8,0.4-1.2 c0.2-0.4,0.5-0.5,0.9-0.5c0.7,0,1,0.3,1,1c0,0.1-0.1,0.8-0.3,1.9c-0.2,1.2-0.3,2.3-0.3,3.4c0,4.2,0.6,6.2,1.9,6.2 c0.3,0,0.6-0.2,1-0.5c0.2-0.2,0.4-0.3,0.7-0.5c0.3,0.3,0.4,0.5,0.4,0.6c0,0.5-0.3,0.9-1,1.3c-0.5,0.3-1,0.5-1.3,0.5 c-2.1,0-3.3-2.3-3.6-6.8L231.4,75.5z"></path> <path class="st0" d="M243.4,73.4c1.6-4.2,3.4-6.3,5.3-6.3c1.2,0,2,0.6,2.2,1.7c0.1,0.7-0.1,1-0.7,1c-0.2,0-0.3-0.1-0.4-0.2 c-0.1-0.1-0.1-0.3-0.2-0.5l0-0.2c-0.1-0.3-0.2-0.4-0.5-0.4c-0.6,0-1.5,0.7-2.5,2.1c-1.2,1.6-2,3.1-2.5,4.5 c-0.5,1.4-0.7,3.1-0.7,4.9c0,0.1,0,1.1,0.1,3.2c0,0.3-0.1,0.5-0.4,0.7c-0.3,0.2-0.5,0.3-0.8,0.3c-0.7,0-1.1-0.6-1-1.7 c0.2-2.7,0.4-4.9,0.4-6.7c0-1.8-0.1-3.9-0.4-6.2c0-0.3,0.1-0.5,0.3-0.8c0.3-0.3,0.5-0.4,0.8-0.4c0.4,0,0.8,0.2,1,0.7 c0.1,0.3,0.2,0.6,0.2,0.9C243.5,71.3,243.4,72.5,243.4,73.4z"></path> <path class="st0" d="M275.4,70c-0.1,0-0.3-0.1-0.8-0.4s-0.8-0.4-1-0.4c-0.9-0.1-2.2,0.6-3.8,2c-1.7,1.4-2.5,2.7-2.5,3.7 c0,0.5,1,0.8,2.9,0.8c3.7,0,5.6,1,5.6,3.1c0,1.5-0.8,2.8-2.5,4c-1.5,1.1-3,1.6-4.5,1.6c-0.7,0-1.3-0.2-1.8-0.6 c-0.7-0.5-1-1.1-1-1.8c0-0.3,0.1-0.7,0.4-1.1c0.3-0.5,0.6-0.7,1-0.7c0.1,0,0.2,0,0.3,0.1c0,0.5-0.1,0.8-0.2,1.1 c-0.1,0.1-0.1,0.3-0.1,0.5c0,0.6,0.4,0.9,1.1,0.9c1.1,0,2.4-0.4,3.8-1.1c1.6-0.8,2.4-1.6,2.4-2.5c0-0.5-0.3-1-0.8-1.4 c-0.5-0.3-0.9-0.5-1.5-0.5l-3.8-0.1c-0.6,0-1.3-0.2-1.9-0.4c-0.8-0.3-1.2-0.7-1.2-1.3c0-1.3,1-3,3.1-5c2.1-2,3.8-3,5.2-3 c0.4,0,0.9,0.2,1.5,0.5c0.7,0.4,1,0.8,1,1.2C276.1,69.7,275.9,70,275.4,70z"></path> <path class="st0" d="M302.7,83c-1.1,0-2.1-0.8-2.8-2.5c-0.6-1.3-0.9-2.5-0.9-3.5c0,0.3,0-0.4,0-1.9c0-1,0-1.8,0-2.3 c-0.1-0.8-0.2-1.2-0.4-1.2c0,0-0.4,0.5-1,1.5c-2.2,3.4-3.3,5.2-3.5,5.4c-1.8,2.5-3.2,3.7-4.2,3.7c-1,0-1.6-1.1-1.7-3.3 c0-0.6,0-2.5,0.2-5.8c0-0.7,0-1.1-0.2-1.1c-0.4,0-1.5,1.6-3.3,4.9c-1.8,3.3-2.8,5.6-2.9,6.8c0,0.5-0.3,0.7-0.9,0.7 c-0.3,0-0.5-0.4-0.7-1.3c-0.1-0.6-0.2-1.1-0.2-1.5c0-2.4,0.1-4.5,0.2-6.3c0.1-1.6,0.3-3,0.6-4.1c0.3-1.2,0.7-1.8,1.1-1.8 c0.3,0,0.6,0.1,0.8,0.3c0.2,0.2,0.3,0.4,0.3,0.6c-0.8,2.8-1.2,5.7-1.2,8.7c1.4-2.6,2.4-4.3,3-5.2c1.6-2.5,2.9-3.7,3.8-3.7 c1.1,0,1.6,1.3,1.6,3.9c0,0.3,0,0.9-0.1,1.9c-0.1,0.9-0.1,1.6-0.1,2.1c0,1,0.1,1.8,0.3,2.3c0.5-0.1,1.3-1,2.5-2.6 c1-1.3,1.8-2.6,2.5-3.7c1.7-3,3-4.5,3.8-4.5c0.8,0,1.3,0.8,1.5,2.3c0.1,0.9,0.2,2.4,0.3,4.3c0.2,3.5,0.9,5.3,1.9,5.3 c0.4,0,0.7-0.2,1-0.6c0.3-0.4,0.5-0.6,0.7-0.6c0.4,0,0.6,0.2,0.6,0.6c0,0.5-0.3,1-1,1.4C303.5,82.8,303.1,83,302.7,83z"></path> <path class="st0" d="M312,84.7c-1.3,0-2.2-1-2.9-2.9c-0.5-1.4-0.7-2.7-0.7-4c0-1.2,0.1-2.6,0.4-4.4c0.4-2.5,1-3.7,1.8-3.7 c0.6,0,0.9,0.3,0.9,1c0,0.3-0.2,0.9-0.6,1.8c-0.4,1-0.7,2.6-0.8,4.9c0,1.1,0,1.7,0,1.9c0.2,0.8,0.3,1.6,0.5,2.5 c0.3,1.1,0.9,1.6,1.5,1.6c0.2,0,0.3,0,0.3-0.1c0.2-0.3,0.4-0.5,0.8-0.6c0.3,0.2,0.4,0.5,0.4,0.7c0,0.4-0.2,0.7-0.7,0.9 C312.6,84.6,312.3,84.7,312,84.7z M310.8,65c-0.3,0-0.5-0.1-0.7-0.4c-0.2-0.3-0.3-0.5-0.3-0.7c0-0.3,0.1-0.5,0.3-0.8 c0.2-0.3,0.5-0.4,0.8-0.4c0.7,0,1,0.4,1,1.1C311.9,64.7,311.5,65,310.8,65z"></path> <path class="st0" d="M317,77.6c0-0.6,0-1.2,0-1.8c0-3.5,0.2-7,0.6-10.5c0.5-3.9,1-5.9,1.5-5.9c0.7,0,1,0.4,1,1.1 c0,0.1-0.1,0.4-0.1,0.7l-0.2,1.4c-0.3,1.4-0.4,2.5-0.5,3.2c-0.4,3.2-0.6,6.7-0.6,10.7c0,4.8,0.8,7.3,2.5,7.3c0.3,0,0.5-0.1,0.7-0.4 h0.5l0.4,0.4l0,0.1c0,0.1,0,0.2,0,0.4c-0.5,0.6-1,0.8-1.7,0.8c-1,0-1.9-0.6-2.6-1.8C317.6,82,317.1,80.1,317,77.6z"></path> <path class="st0" d="M327.9,76.5c-0.2,0.2-0.5,0.9-0.8,1.9c-0.3,1.1-0.4,2-0.4,2.8c0,1,0.7,1.6,2,1.6c1.3,0,2.9-0.8,4.6-2.3 c1.7-1.5,2.9-3,3.6-4.6h0.6c0.3,0.2,0.3,0.5,0.3,0.7c-0.8,2.2-2.1,4.1-3.9,5.5c-1.7,1.4-3.4,2.1-5.2,2.1c-1.3,0-2.2-0.4-2.9-1.3 c-0.6-0.8-0.9-2-0.8-3.4c0.1-2,1.2-4.5,3.2-7.4c2.2-3.2,4.1-4.7,5.9-4.7c0.6,0,1.1,0.3,1.4,0.8c0.2,0.4,0.4,0.8,0.4,1.3 c0,1.3-0.5,2.8-1.7,4.5c-1.3,2-2.8,3-4.5,3C329.1,77.1,328.4,76.9,327.9,76.5L327.9,76.5z M334,68.9c-0.5,0.1-1,0.4-1.4,0.9 c-2.8,3.2-4.1,5.1-4.1,5.6c0,0.1,0.3,0.2,0.9,0.3c1,0.1,2.2-0.7,3.4-2.2c1.2-1.5,1.8-2.8,1.8-4C334.6,68.9,334.4,68.8,334,68.9z"></path> </g> <path class="st0" d="M107.8,15.6H97.5V9.1h27.4v6.5h-10.3v34.1h-6.8V15.6z"></path> <path class="st0" d="M136.4,24.5c1.6-2.9,4.3-4.8,8.2-4.8c6.5,0,10.7,4.8,10.7,11.3v18.6h-6.6V32.7c0-3.9-2.3-6.6-6.1-6.6 c-3.8,0-6.1,2.5-6.2,6.3v17.3h-6.6V8.5h6.6V24.5z"></path> <path class="st0" d="M167.3,37.2c0.7,4.2,4.2,7.2,8.9,7.2c3.9,0,7.7-1.4,10.3-3.2v6.5c-2.5,1.4-6.3,2.7-10.7,2.7 c-8.6,0-15.1-6.3-15.1-15.3c0-8.7,6.3-15.3,14.7-15.3c8.4,0,14,6.4,14,14.1c0,1.1-0.2,2.5-0.4,3.3H167.3z M167.3,32.1h15.8 c-0.1-4.1-3.4-6.9-7.7-6.9C171,25.2,167.7,28.3,167.3,32.1z"></path> <path class="st0" d="M198.1,7.3c2.3,0,4,1.8,4,4.1c0,2.3-1.7,4.1-4,4.1c-2.3,0-4.1-1.8-4.1-4.1C194,9.1,195.7,7.3,198.1,7.3z M201.3,49.7h-6.6V20.3h6.6V49.7z"></path> <path class="st0" d="M215.4,23.9c1.4-2.4,3.8-4.2,7.2-4.2c0.8,0,1.7,0.1,2.4,0.2v7c-1.1-0.5-2.4-0.8-3.9-0.8c-3.6,0-5.6,2.5-5.7,6.3 v17.3h-6.6V20.3h6.6V23.9z"></path> <g> <g> <linearGradient id="SVGID_1_" gradientUnits="userSpaceOnUse" x1="230.6941" y1="29.0987" x2="406.6441" y2="29.0987"> <stop offset="0" style="stop-color:#FF007E"></stop> <stop offset="0.9987" style="stop-color:#FF6C38"></stop> </linearGradient> <path class="st1" d="M230.7,9.1h12.9c7.7,0,13.1,4.7,13.1,12.5c0,7.8-5.4,12.5-13.1,12.5h-6.1v15.6h-6.8V9.1z M243.5,15.6h-6v12h6 c3.5,0,6.1-1.9,6.1-6S247,15.6,243.5,15.6z"></path> <linearGradient id="SVGID_2_" gradientUnits="userSpaceOnUse" x1="230.6941" y1="29.0987" x2="406.6441" y2="29.0987"> <stop offset="0" style="stop-color:#FF007E"></stop> <stop offset="0.9987" style="stop-color:#FF6C38"></stop> </linearGradient> <path class="st2" d="M265.7,37.2c0.7,4.2,4.2,7.2,8.9,7.2c3.9,0,7.7-1.4,10.3-3.2v6.5c-2.5,1.4-6.3,2.7-10.7,2.7 c-8.6,0-15.1-6.3-15.1-15.3c0-8.7,6.3-15.3,14.7-15.3c8.4,0,14,6.4,14,14.1c0,1.1-0.2,2.5-0.4,3.3H265.7z M265.7,32.1h15.8 c-0.1-4.1-3.4-6.9-7.7-6.9C269.4,25.2,266.1,28.3,265.7,32.1z"></path> <linearGradient id="SVGID_3_" gradientUnits="userSpaceOnUse" x1="230.6941" y1="29.0987" x2="406.6441" y2="29.0987"> <stop offset="0" style="stop-color:#FF007E"></stop> <stop offset="0.9987" style="stop-color:#FF6C38"></stop> </linearGradient> <path class="st3" d="M299.7,23.9c1.4-2.4,3.8-4.2,7.2-4.2c0.8,0,1.7,0.1,2.4,0.2v7c-1.1-0.5-2.4-0.8-3.9-0.8 c-3.6,0-5.6,2.5-5.7,6.3v17.3h-6.6V20.3h6.6V23.9z"></path> <linearGradient id="SVGID_4_" gradientUnits="userSpaceOnUse" x1="230.6941" y1="29.0987" x2="406.6441" y2="29.0987"> <stop offset="0" style="stop-color:#FF007E"></stop> <stop offset="0.9987" style="stop-color:#FF6C38"></stop> </linearGradient> <path class="st4" d="M329.1,25.9h-6.5v23.7h-6.6V25.9h-4.4v-5.6h4.4v-2.6c0-6.4,4-9.8,10.1-9.8c1,0,2.6,0.2,3.2,0.4v6.6 c-0.6-0.3-1.9-0.7-3-0.7c-2.4,0-3.8,1.6-3.8,3.8v2.2h6.5V25.9z"></path> <linearGradient id="SVGID_5_" gradientUnits="userSpaceOnUse" x1="230.6941" y1="29.0987" x2="406.6441" y2="29.0987"> <stop offset="0" style="stop-color:#FF007E"></stop> <stop offset="0.9987" style="stop-color:#FF6C38"></stop> </linearGradient> <path class="st5" d="M338,37.2c0.7,4.2,4.2,7.2,8.9,7.2c3.9,0,7.7-1.4,10.3-3.2v6.5c-2.5,1.4-6.3,2.7-10.7,2.7 c-8.6,0-15.1-6.3-15.1-15.3c0-8.7,6.3-15.3,14.7-15.3c8.4,0,14,6.4,14,14.1c0,1.1-0.2,2.5-0.4,3.3H338z M338,32.1h15.8 c-0.1-4.1-3.4-6.9-7.7-6.9C341.7,25.2,338.4,28.3,338,32.1z"></path> <linearGradient id="SVGID_6_" gradientUnits="userSpaceOnUse" x1="230.6941" y1="29.0987" x2="406.6441" y2="29.0987"> <stop offset="0" style="stop-color:#FF007E"></stop> <stop offset="0.9987" style="stop-color:#FF6C38"></stop> </linearGradient> <path class="st6" d="M386.2,48.6c-1.8,1.1-4.7,1.7-7,1.7c-9.1,0-15.5-6.7-15.5-15.3c0-8.7,6.3-15.3,15.5-15.3c2.3,0,5.2,0.6,7,1.6 v7c-1.7-1.3-4.1-2.3-7-2.3c-5,0-8.8,4-8.8,8.9c0,4.9,3.8,8.9,8.8,8.9c2.9,0,5.4-1,7-2.3V48.6z"></path> <linearGradient id="SVGID_7_" gradientUnits="userSpaceOnUse" x1="230.6941" y1="29.0987" x2="406.6441" y2="29.0987"> <stop offset="0" style="stop-color:#FF007E"></stop> <stop offset="0.9987" style="stop-color:#FF6C38"></stop> </linearGradient> <path class="st7" d="M394.8,49.7V25.9h-5v-5.6h5.3v-6.9l6.2-1.4v8.3h5.3v5.6h-5.3v23.7H394.8z"></path> </g> </g> <path class="st0" d="M441.9,18c-2.8-1.6-6.7-2.8-11-2.8c-8.2,0-14.1,6-14.1,14.1c0,7.7,5.6,14.1,13.4,14.1c7.6,0,12.2-5.2,12.2-11.2 c0-0.4,0-1.1-0.1-1.4h-12.5v-6.1h19.4c0.3,1.4,0.5,3.6,0.5,5.6c0,10.8-7.1,19.9-19.8,19.9c-11.8,0-20.2-9.2-20.2-20.9 c0-11.9,8.8-20.9,21.1-20.9c4.4,0,8.3,0.9,11,2.1V18z"></path> <path class="st0" d="M458.3,7.3c2.3,0,4,1.8,4,4.1c0,2.3-1.7,4.1-4,4.1c-2.3,0-4.1-1.8-4.1-4.1C454.3,9.1,456,7.3,458.3,7.3z M461.6,49.7H455V20.3h6.6V49.7z"></path> <path class="st0" d="M484.2,25.9h-6.5v23.7h-6.6V25.9h-4.4v-5.6h4.4v-2.6c0-6.4,4-9.8,10.1-9.8c1,0,2.6,0.2,3.2,0.4v6.6 c-0.6-0.3-1.9-0.7-3-0.7c-2.4,0-3.8,1.6-3.8,3.8v2.2h6.5V25.9z"></path> <path class="st0" d="M491.1,49.7V25.9h-5v-5.6h5.3v-6.9l6.2-1.4v8.3h5.3v5.6h-5.3v23.7H491.1z"></path> <g> <linearGradient id="SVGID_8_" gradientUnits="userSpaceOnUse" x1="9.36" y1="47.0841" x2="85.076" y2="47.0841"> <stop offset="0" style="stop-color:#FF007E"></stop> <stop offset="1" style="stop-color:#FF6C38"></stop> </linearGradient> <circle class="st8" cx="47.2" cy="47.1" r="37.9"></circle> <g> <g> <path class="st9" d="M55.7,32.6c1.1-1.1,2.7-1.8,4.3-1.8c1.6,0,3.1,0.6,4.3,1.8c0.7,0.7,1.7,0.7,2.4,0c0.7-0.7,0.7-1.7,0-2.4 c-1.8-1.8-4.2-2.8-6.7-2.8c-2.5,0-4.9,1-6.7,2.8l0,0c-0.7,0.7-0.7,1.7,0,2.4C54,33.3,55.1,33.3,55.7,32.6z"></path> <path class="st9" d="M30.2,32.6c1.1-1.1,2.7-1.8,4.3-1.8c1.6,0,3.1,0.6,4.3,1.8c0.7,0.7,1.7,0.7,2.4,0c0.7-0.7,0.7-1.7,0-2.4 c-1.8-1.8-4.2-2.8-6.7-2.8c-2.5,0-4.9,1-6.7,2.8l0,0c-0.7,0.7-0.7,1.7,0,2.4C28.4,33.3,29.5,33.3,30.2,32.6z"></path> <path class="st9" d="M65.5,39H29c-0.9,0-1.7,0.8-1.7,1.7c0,11,8.9,20,20,20s20-8.9,20-20C67.2,39.8,66.4,39,65.5,39z M47.2,57.3 c-8.6,0-15.6-6.6-16.5-14.8h32.9C62.8,50.7,55.8,57.3,47.2,57.3z"></path> </g> </g> </g> </svg> 